<svg width="1593" height="345" viewBox="0 0 1593 345" fill="none" xmlns="http://www.w3.org/2000/svg">
<g filter="url(#filter0_d_1132_47)">
<rect x="29" y="25" width="287" height="287" rx="20" fill="#F4F4F4"/>
<circle cx="168.5" cy="85.5" r="18.5" fill="#FFC20E"/>
<circle cx="169" cy="130" r="17" fill="#FFC20E"/>
<circle cx="133" cy="102" r="17" fill="#FFC20E"/>
<path d="M152.288 183.992C151.888 184.504 151.112 184.504 150.712 183.992L104.698 125.116C104.185 124.459 104.653 123.5 105.486 123.5L197.514 123.5C198.347 123.5 198.815 124.459 198.302 125.116L152.288 183.992Z" fill="#D9D9D9"/>
<path d="M158.5 172C159.052 172 159.5 172.448 159.5 173L159.5 194.209C159.5 194.761 159.948 195.209 160.5 195.209L169.923 195.209C170.335 195.209 170.704 195.461 170.854 195.845L175.466 207.636C175.723 208.292 175.239 209 174.535 209L144 209C143.448 209 143 208.552 143 208L143 173C143 172.448 143.448 172 144 172L158.5 172Z" fill="#D9D9D9"/>
<rect x="186" y="196" width="13" height="13" fill="#E2231A"/>
<rect x="200" y="196" width="13" height="13" fill="#E2231A"/>
<rect x="214" y="196" width="13" height="13" fill="#E2231A"/>
<rect x="207" y="182" width="13" height="13" fill="#E2231A"/>
<rect x="193" y="182" width="13" height="13" fill="#E2231A"/>
<rect x="201" y="169" width="12" height="12" fill="#E2231A"/>
<path d="M112.522 248.44H118.802V277H112.522V248.44ZM123.719 256.32H129.119V259.2H129.239C129.959 258 130.892 257.133 132.039 256.6C133.185 256.04 134.359 255.76 135.559 255.76C137.079 255.76 138.319 255.973 139.279 256.4C140.265 256.8 141.039 257.373 141.599 258.12C142.159 258.84 142.545 259.733 142.759 260.8C142.999 261.84 143.119 263 143.119 264.28V277H137.439V265.32C137.439 263.613 137.172 262.347 136.639 261.52C136.105 260.667 135.159 260.24 133.799 260.24C132.252 260.24 131.132 260.707 130.439 261.64C129.745 262.547 129.399 264.053 129.399 266.16V277H123.719V256.32ZM157.07 272.12C157.87 272.12 158.576 271.96 159.19 271.64C159.803 271.32 160.31 270.893 160.71 270.36C161.11 269.827 161.403 269.227 161.59 268.56C161.803 267.867 161.91 267.147 161.91 266.4C161.91 265.547 161.83 264.747 161.67 264C161.51 263.227 161.243 262.547 160.87 261.96C160.496 261.373 160.003 260.907 159.39 260.56C158.776 260.213 158.003 260.04 157.07 260.04C156.27 260.04 155.576 260.2 154.99 260.52C154.43 260.84 153.95 261.28 153.55 261.84C153.176 262.373 152.896 263 152.71 263.72C152.55 264.413 152.47 265.147 152.47 265.92C152.47 266.667 152.536 267.413 152.67 268.16C152.83 268.88 153.083 269.533 153.43 270.12C153.803 270.707 154.283 271.187 154.87 271.56C155.456 271.933 156.19 272.12 157.07 272.12ZM167.31 275.68C167.31 276.507 167.19 277.453 166.95 278.52C166.736 279.587 166.256 280.573 165.51 281.48C164.763 282.413 163.683 283.2 162.27 283.84C160.856 284.48 158.963 284.8 156.59 284.8C155.576 284.8 154.536 284.667 153.47 284.4C152.43 284.16 151.47 283.773 150.59 283.24C149.736 282.707 149.016 282.013 148.43 281.16C147.87 280.333 147.55 279.333 147.47 278.16H153.11C153.376 279.227 153.896 279.96 154.67 280.36C155.443 280.787 156.336 281 157.35 281C158.95 281 160.11 280.52 160.83 279.56C161.576 278.6 161.936 277.387 161.91 275.92V273.2H161.83C161.216 274.293 160.336 275.107 159.19 275.64C158.07 276.147 156.883 276.4 155.63 276.4C154.083 276.4 152.75 276.133 151.63 275.6C150.51 275.04 149.59 274.293 148.87 273.36C148.15 272.4 147.616 271.293 147.27 270.04C146.95 268.76 146.79 267.413 146.79 266C146.79 264.667 146.976 263.387 147.35 262.16C147.75 260.907 148.323 259.813 149.07 258.88C149.816 257.92 150.736 257.16 151.83 256.6C152.95 256.04 154.23 255.76 155.67 255.76C157.03 255.76 158.216 256.013 159.23 256.52C160.27 257.027 161.136 257.88 161.83 259.08H161.91V256.32H167.31V275.68ZM185.803 264.44C185.536 263 185.056 261.907 184.363 261.16C183.696 260.413 182.669 260.04 181.283 260.04C180.376 260.04 179.616 260.2 179.003 260.52C178.416 260.813 177.936 261.187 177.563 261.64C177.216 262.093 176.963 262.573 176.803 263.08C176.669 263.587 176.589 264.04 176.563 264.44H185.803ZM176.563 268.04C176.643 269.88 177.109 271.213 177.963 272.04C178.816 272.867 180.043 273.28 181.643 273.28C182.789 273.28 183.776 273 184.603 272.44C185.429 271.853 185.936 271.24 186.123 270.6H191.123C190.323 273.08 189.096 274.853 187.443 275.92C185.789 276.987 183.789 277.52 181.443 277.52C179.816 277.52 178.349 277.267 177.043 276.76C175.736 276.227 174.629 275.48 173.723 274.52C172.816 273.56 172.109 272.413 171.603 271.08C171.123 269.747 170.883 268.28 170.883 266.68C170.883 265.133 171.136 263.693 171.643 262.36C172.149 261.027 172.869 259.88 173.803 258.92C174.736 257.933 175.843 257.16 177.123 256.6C178.429 256.04 179.869 255.76 181.443 255.76C183.203 255.76 184.736 256.107 186.043 256.8C187.349 257.467 188.416 258.373 189.243 259.52C190.096 260.667 190.709 261.973 191.083 263.44C191.456 264.907 191.589 266.44 191.483 268.04H176.563ZM199.251 270.28C199.251 270.893 199.371 271.427 199.611 271.88C199.878 272.307 200.211 272.667 200.611 272.96C201.011 273.227 201.465 273.427 201.971 273.56C202.505 273.693 203.051 273.76 203.611 273.76C204.011 273.76 204.425 273.72 204.851 273.64C205.305 273.533 205.705 273.387 206.051 273.2C206.425 272.987 206.731 272.72 206.971 272.4C207.211 272.053 207.331 271.627 207.331 271.12C207.331 270.267 206.758 269.627 205.611 269.2C204.491 268.773 202.918 268.347 200.891 267.92C200.065 267.733 199.251 267.52 198.451 267.28C197.678 267.013 196.985 266.68 196.371 266.28C195.758 265.853 195.265 265.333 194.891 264.72C194.518 264.08 194.331 263.307 194.331 262.4C194.331 261.067 194.585 259.973 195.091 259.12C195.625 258.267 196.318 257.6 197.171 257.12C198.025 256.613 198.985 256.267 200.051 256.08C201.118 255.867 202.211 255.76 203.331 255.76C204.451 255.76 205.531 255.867 206.571 256.08C207.638 256.293 208.585 256.653 209.411 257.16C210.238 257.667 210.918 258.347 211.451 259.2C212.011 260.027 212.345 261.08 212.451 262.36H207.051C206.971 261.267 206.558 260.533 205.811 260.16C205.065 259.76 204.185 259.56 203.171 259.56C202.851 259.56 202.505 259.587 202.131 259.64C201.758 259.667 201.411 259.747 201.091 259.88C200.798 260.013 200.545 260.213 200.331 260.48C200.118 260.72 200.011 261.053 200.011 261.48C200.011 261.987 200.198 262.4 200.571 262.72C200.945 263.04 201.425 263.307 202.011 263.52C202.625 263.707 203.318 263.88 204.091 264.04C204.865 264.2 205.651 264.373 206.451 264.56C207.278 264.747 208.078 264.973 208.851 265.24C209.651 265.507 210.358 265.867 210.971 266.32C211.585 266.747 212.078 267.293 212.451 267.96C212.825 268.6 213.011 269.4 213.011 270.36C213.011 271.72 212.731 272.867 212.171 273.8C211.638 274.707 210.931 275.44 210.051 276C209.171 276.56 208.158 276.947 207.011 277.16C205.891 277.4 204.745 277.52 203.571 277.52C202.371 277.52 201.198 277.4 200.051 277.16C198.905 276.92 197.878 276.52 196.971 275.96C196.091 275.4 195.358 274.667 194.771 273.76C194.211 272.827 193.905 271.667 193.851 270.28H199.251ZM223.536 256.32H227.696V260.12H223.536V270.36C223.536 271.32 223.696 271.96 224.016 272.28C224.336 272.6 224.976 272.76 225.936 272.76C226.256 272.76 226.562 272.747 226.856 272.72C227.149 272.693 227.429 272.653 227.696 272.6V277C227.216 277.08 226.682 277.133 226.096 277.16C225.509 277.187 224.936 277.2 224.376 277.2C223.496 277.2 222.656 277.133 221.856 277C221.082 276.893 220.389 276.667 219.776 276.32C219.189 275.973 218.722 275.48 218.376 274.84C218.029 274.2 217.856 273.36 217.856 272.32V260.12H214.416V256.32H217.856V250.12H223.536V256.32Z" fill="black"/>
<rect x="341" y="25" width="287" height="287" rx="20" fill="#F4F4F4"/>
<ellipse cx="447.5" cy="145" rx="59.5" ry="30" fill="#D9D9D9"/>
<ellipse cx="447.339" cy="178.33" rx="59.3392" ry="29.6696" fill="#808080"/>
<rect x="388" y="145.409" width="118.678" height="37.3918" fill="#808080"/>
<ellipse cx="447.339" cy="145.003" rx="59.3392" ry="29.6696" fill="#FFC20E"/>
<ellipse cx="447.339" cy="131.997" rx="59.3392" ry="29.6696" fill="#808080"/>
<rect x="388" y="99.0759" width="118.678" height="37.3918" fill="#808080"/>
<ellipse cx="447.339" cy="98.6696" rx="59.3392" ry="29.6696" fill="#D9D9D9"/>
<ellipse cx="524.275" cy="204.363" rx="39.2749" ry="19.6374" fill="#808080"/>
<rect x="485" y="182.573" width="78.5498" height="24.7486" fill="#808080"/>
<ellipse cx="524.275" cy="182.304" rx="39.2749" ry="19.6374" fill="#E2231A"/>
<ellipse cx="524.275" cy="173.696" rx="39.2749" ry="19.6374" fill="#808080"/>
<rect x="485" y="151.906" width="78.5498" height="24.7486" fill="#808080"/>
<ellipse cx="524.275" cy="151.637" rx="39.2749" ry="19.6374" fill="#D9D9D9"/>
<path d="M434.888 275.52C434.888 276.48 435.061 277.293 435.408 277.96C435.754 278.627 436.208 279.173 436.768 279.6C437.354 280 438.034 280.307 438.808 280.52C439.581 280.707 440.381 280.8 441.208 280.8C441.768 280.8 442.368 280.76 443.008 280.68C443.648 280.573 444.248 280.387 444.808 280.12C445.368 279.853 445.834 279.493 446.208 279.04C446.581 278.56 446.768 277.96 446.768 277.24C446.768 276.467 446.514 275.84 446.008 275.36C445.528 274.88 444.888 274.48 444.088 274.16C443.288 273.84 442.381 273.56 441.368 273.32C440.354 273.08 439.328 272.813 438.288 272.52C437.221 272.253 436.181 271.933 435.168 271.56C434.154 271.16 433.248 270.653 432.448 270.04C431.648 269.427 430.994 268.667 430.488 267.76C430.008 266.827 429.768 265.707 429.768 264.4C429.768 262.933 430.074 261.667 430.688 260.6C431.328 259.507 432.154 258.6 433.168 257.88C434.181 257.16 435.328 256.627 436.608 256.28C437.888 255.933 439.168 255.76 440.448 255.76C441.941 255.76 443.368 255.933 444.728 256.28C446.114 256.6 447.341 257.133 448.408 257.88C449.474 258.627 450.314 259.587 450.928 260.76C451.568 261.907 451.888 263.307 451.888 264.96H445.808C445.754 264.107 445.568 263.4 445.248 262.84C444.954 262.28 444.554 261.84 444.048 261.52C443.541 261.2 442.954 260.973 442.288 260.84C441.648 260.707 440.941 260.64 440.168 260.64C439.661 260.64 439.154 260.693 438.648 260.8C438.141 260.907 437.674 261.093 437.248 261.36C436.848 261.627 436.514 261.96 436.248 262.36C435.981 262.76 435.848 263.267 435.848 263.88C435.848 264.44 435.954 264.893 436.168 265.24C436.381 265.587 436.794 265.907 437.408 266.2C438.048 266.493 438.914 266.787 440.008 267.08C441.128 267.373 442.581 267.747 444.368 268.2C444.901 268.307 445.634 268.507 446.568 268.8C447.528 269.067 448.474 269.507 449.408 270.12C450.341 270.733 451.141 271.56 451.808 272.6C452.501 273.613 452.848 274.92 452.848 276.52C452.848 277.827 452.594 279.04 452.088 280.16C451.581 281.28 450.821 282.253 449.808 283.08C448.821 283.88 447.581 284.507 446.088 284.96C444.621 285.413 442.914 285.64 440.968 285.64C439.394 285.64 437.861 285.44 436.368 285.04C434.901 284.667 433.594 284.067 432.448 283.24C431.328 282.413 430.434 281.36 429.768 280.08C429.101 278.8 428.781 277.28 428.808 275.52H434.888ZM463.184 264.32H467.344V268.12H463.184V278.36C463.184 279.32 463.344 279.96 463.664 280.28C463.984 280.6 464.624 280.76 465.584 280.76C465.904 280.76 466.211 280.747 466.504 280.72C466.798 280.693 467.078 280.653 467.344 280.6V285C466.864 285.08 466.331 285.133 465.744 285.16C465.158 285.187 464.584 285.2 464.024 285.2C463.144 285.2 462.304 285.133 461.504 285C460.731 284.893 460.038 284.667 459.424 284.32C458.838 283.973 458.371 283.48 458.024 282.84C457.678 282.2 457.504 281.36 457.504 280.32V268.12H454.064V264.32H457.504V258.12H463.184V264.32ZM475.087 274.68C475.087 275.507 475.167 276.32 475.327 277.12C475.487 277.893 475.753 278.6 476.127 279.24C476.527 279.853 477.047 280.347 477.687 280.72C478.327 281.093 479.127 281.28 480.087 281.28C481.047 281.28 481.847 281.093 482.487 280.72C483.153 280.347 483.673 279.853 484.047 279.24C484.447 278.6 484.727 277.893 484.887 277.12C485.047 276.32 485.127 275.507 485.127 274.68C485.127 273.853 485.047 273.04 484.887 272.24C484.727 271.44 484.447 270.733 484.047 270.12C483.673 269.507 483.153 269.013 482.487 268.64C481.847 268.24 481.047 268.04 480.087 268.04C479.127 268.04 478.327 268.24 477.687 268.64C477.047 269.013 476.527 269.507 476.127 270.12C475.753 270.733 475.487 271.44 475.327 272.24C475.167 273.04 475.087 273.853 475.087 274.68ZM469.407 274.68C469.407 273.027 469.66 271.533 470.167 270.2C470.673 268.84 471.393 267.693 472.327 266.76C473.26 265.8 474.38 265.067 475.687 264.56C476.993 264.027 478.46 263.76 480.087 263.76C481.713 263.76 483.18 264.027 484.487 264.56C485.82 265.067 486.953 265.8 487.887 266.76C488.82 267.693 489.54 268.84 490.047 270.2C490.553 271.533 490.807 273.027 490.807 274.68C490.807 276.333 490.553 277.827 490.047 279.16C489.54 280.493 488.82 281.64 487.887 282.6C486.953 283.533 485.82 284.253 484.487 284.76C483.18 285.267 481.713 285.52 480.087 285.52C478.46 285.52 476.993 285.267 475.687 284.76C474.38 284.253 473.26 283.533 472.327 282.6C471.393 281.64 470.673 280.493 470.167 279.16C469.66 277.827 469.407 276.333 469.407 274.68ZM494.5 264.32H499.9V268.16H499.98C500.247 267.52 500.607 266.933 501.06 266.4C501.513 265.84 502.033 265.373 502.62 265C503.207 264.6 503.833 264.293 504.5 264.08C505.167 263.867 505.86 263.76 506.58 263.76C506.953 263.76 507.367 263.827 507.82 263.96V269.24C507.553 269.187 507.233 269.147 506.86 269.12C506.487 269.067 506.127 269.04 505.78 269.04C504.74 269.04 503.86 269.213 503.14 269.56C502.42 269.907 501.833 270.387 501.38 271C500.953 271.587 500.647 272.28 500.46 273.08C500.273 273.88 500.18 274.747 500.18 275.68V285H494.5V264.32ZM523.264 272.44C522.997 271 522.517 269.907 521.824 269.16C521.157 268.413 520.13 268.04 518.744 268.04C517.837 268.04 517.077 268.2 516.464 268.52C515.877 268.813 515.397 269.187 515.024 269.64C514.677 270.093 514.424 270.573 514.264 271.08C514.13 271.587 514.05 272.04 514.024 272.44H523.264ZM514.024 276.04C514.104 277.88 514.57 279.213 515.424 280.04C516.277 280.867 517.504 281.28 519.104 281.28C520.25 281.28 521.237 281 522.064 280.44C522.89 279.853 523.397 279.24 523.584 278.6H528.584C527.784 281.08 526.557 282.853 524.904 283.92C523.25 284.987 521.25 285.52 518.904 285.52C517.277 285.52 515.81 285.267 514.504 284.76C513.197 284.227 512.09 283.48 511.184 282.52C510.277 281.56 509.57 280.413 509.064 279.08C508.584 277.747 508.344 276.28 508.344 274.68C508.344 273.133 508.597 271.693 509.104 270.36C509.61 269.027 510.33 267.88 511.264 266.92C512.197 265.933 513.304 265.16 514.584 264.6C515.89 264.04 517.33 263.76 518.904 263.76C520.664 263.76 522.197 264.107 523.504 264.8C524.81 265.467 525.877 266.373 526.704 267.52C527.557 268.667 528.17 269.973 528.544 271.44C528.917 272.907 529.05 274.44 528.944 276.04H514.024Z" fill="black"/>
<rect x="653" y="25" width="287" height="287" rx="20" fill="#F4F4F4"/>
<path d="M731.546 272.96H738.946L735.346 262.48H735.266L731.546 272.96ZM732.146 255.44H738.586L749.266 284H742.746L740.586 277.64H729.906L727.666 284H721.346L732.146 255.44ZM751.129 263.32H756.529V266.2H756.649C757.369 265 758.302 264.133 759.449 263.6C760.595 263.04 761.769 262.76 762.969 262.76C764.489 262.76 765.729 262.973 766.689 263.4C767.675 263.8 768.449 264.373 769.009 265.12C769.569 265.84 769.955 266.733 770.169 267.8C770.409 268.84 770.529 270 770.529 271.28V284H764.849V272.32C764.849 270.613 764.582 269.347 764.049 268.52C763.515 267.667 762.569 267.24 761.209 267.24C759.662 267.24 758.542 267.707 757.849 268.64C757.155 269.547 756.809 271.053 756.809 273.16V284H751.129V263.32ZM774.6 269.68C774.68 268.347 775.013 267.24 775.6 266.36C776.186 265.48 776.933 264.773 777.84 264.24C778.746 263.707 779.76 263.333 780.88 263.12C782.026 262.88 783.173 262.76 784.32 262.76C785.36 262.76 786.413 262.84 787.48 263C788.546 263.133 789.52 263.413 790.4 263.84C791.28 264.267 792 264.867 792.56 265.64C793.12 266.387 793.4 267.387 793.4 268.64V279.4C793.4 280.333 793.453 281.227 793.56 282.08C793.666 282.933 793.853 283.573 794.12 284H788.36C788.253 283.68 788.16 283.36 788.08 283.04C788.026 282.693 787.986 282.347 787.96 282C787.053 282.933 785.986 283.587 784.76 283.96C783.533 284.333 782.28 284.52 781 284.52C780.013 284.52 779.093 284.4 778.24 284.16C777.386 283.92 776.64 283.547 776 283.04C775.36 282.533 774.853 281.893 774.48 281.12C774.133 280.347 773.96 279.427 773.96 278.36C773.96 277.187 774.16 276.227 774.56 275.48C774.986 274.707 775.52 274.093 776.16 273.64C776.826 273.187 777.573 272.853 778.4 272.64C779.253 272.4 780.106 272.213 780.96 272.08C781.813 271.947 782.653 271.84 783.48 271.76C784.306 271.68 785.04 271.56 785.68 271.4C786.32 271.24 786.826 271.013 787.2 270.72C787.573 270.4 787.746 269.947 787.72 269.36C787.72 268.747 787.613 268.267 787.4 267.92C787.213 267.547 786.946 267.267 786.6 267.08C786.28 266.867 785.893 266.733 785.44 266.68C785.013 266.6 784.546 266.56 784.04 266.56C782.92 266.56 782.04 266.8 781.4 267.28C780.76 267.76 780.386 268.56 780.28 269.68H774.6ZM787.72 273.88C787.48 274.093 787.173 274.267 786.8 274.4C786.453 274.507 786.066 274.6 785.64 274.68C785.24 274.76 784.813 274.827 784.36 274.88C783.906 274.933 783.453 275 783 275.08C782.573 275.16 782.146 275.267 781.72 275.4C781.32 275.533 780.96 275.72 780.64 275.96C780.346 276.173 780.106 276.453 779.92 276.8C779.733 277.147 779.64 277.587 779.64 278.12C779.64 278.627 779.733 279.053 779.92 279.4C780.106 279.747 780.36 280.027 780.68 280.24C781 280.427 781.373 280.56 781.8 280.64C782.226 280.72 782.666 280.76 783.12 280.76C784.24 280.76 785.106 280.573 785.72 280.2C786.333 279.827 786.786 279.387 787.08 278.88C787.373 278.347 787.546 277.813 787.6 277.28C787.68 276.747 787.72 276.32 787.72 276V273.88ZM797.968 255.44H803.648V284H797.968V255.44ZM818.321 286.56C817.708 288.24 816.854 289.44 815.761 290.16C814.668 290.88 813.148 291.24 811.201 291.24C810.614 291.24 810.028 291.213 809.441 291.16C808.881 291.133 808.308 291.093 807.721 291.04V286.36C808.254 286.413 808.801 286.467 809.361 286.52C809.921 286.573 810.481 286.587 811.041 286.56C811.788 286.48 812.334 286.187 812.681 285.68C813.054 285.173 813.241 284.613 813.241 284C813.241 283.547 813.161 283.12 813.001 282.72L805.761 263.32H811.801L816.481 277.48H816.561L821.081 263.32H826.961L818.321 286.56ZM827.583 279.72L838.343 267.6H828.383V263.32H845.823V267.6L835.063 279.72H846.583V284H827.583V279.72ZM863.525 271.44C863.259 270 862.779 268.907 862.085 268.16C861.419 267.413 860.392 267.04 859.005 267.04C858.099 267.04 857.339 267.2 856.725 267.52C856.139 267.813 855.659 268.187 855.285 268.64C854.939 269.093 854.685 269.573 854.525 270.08C854.392 270.587 854.312 271.04 854.285 271.44H863.525ZM854.285 275.04C854.365 276.88 854.832 278.213 855.685 279.04C856.539 279.867 857.765 280.28 859.365 280.28C860.512 280.28 861.499 280 862.325 279.44C863.152 278.853 863.659 278.24 863.845 277.6H868.845C868.045 280.08 866.819 281.853 865.165 282.92C863.512 283.987 861.512 284.52 859.165 284.52C857.539 284.52 856.072 284.267 854.765 283.76C853.459 283.227 852.352 282.48 851.445 281.52C850.539 280.56 849.832 279.413 849.325 278.08C848.845 276.747 848.605 275.28 848.605 273.68C848.605 272.133 848.859 270.693 849.365 269.36C849.872 268.027 850.592 266.88 851.525 265.92C852.459 264.933 853.565 264.16 854.845 263.6C856.152 263.04 857.592 262.76 859.165 262.76C860.925 262.76 862.459 263.107 863.765 263.8C865.072 264.467 866.139 265.373 866.965 266.52C867.819 267.667 868.432 268.973 868.805 270.44C869.179 271.907 869.312 273.44 869.205 275.04H854.285Z" fill="black"/>
<path d="M711 101.93C711 101.378 711.448 100.93 712 100.93H753.671C754.414 100.93 754.898 101.712 754.565 102.377L749.445 112.617C749.376 112.756 749.339 112.909 749.339 113.064V221.559C749.339 222.111 748.892 222.559 748.339 222.559H712C711.448 222.559 711 222.111 711 221.559V101.93Z" fill="#D9D9D9"/>
<line x1="733.477" y1="150.668" x2="749.341" y2="150.668" stroke="black"/>
<line x1="733.477" y1="158.601" x2="749.341" y2="158.601" stroke="black"/>
<line x1="733.477" y1="166.532" x2="749.341" y2="166.532" stroke="black"/>
<rect x="723.152" y="181.576" width="17.1867" height="17.1867" transform="rotate(45 723.152 181.576)" fill="#E2231A"/>
<rect x="728.184" y="200.085" width="17.1867" height="17.1867" fill="#E2231A"/>
<path d="M809.941 143.484C810.322 142.799 811.308 142.799 811.689 143.484L855.213 221.733C855.584 222.4 855.102 223.219 854.339 223.219L767.291 223.219C766.528 223.219 766.046 222.4 766.417 221.733L809.941 143.484Z" fill="#D9D9D9"/>
<path d="M801.238 167.032C800.686 167.032 800.238 166.585 800.238 166.032L800.238 136.572C800.238 136.425 800.205 136.279 800.142 136.146L792.317 119.543C792.004 118.879 792.488 118.116 793.221 118.116L821.052 118.116C821.604 118.116 822.052 118.564 822.052 119.116L822.052 166.032C822.052 166.585 821.604 167.032 821.052 167.032L801.238 167.032Z" fill="#D9D9D9"/>
<line x1="787.68" y1="183.719" x2="803.544" y2="183.719" stroke="black"/>
<line x1="783.711" y1="191.651" x2="799.576" y2="191.651" stroke="black"/>
<line x1="779.746" y1="199.584" x2="795.611" y2="199.584" stroke="black"/>
<rect x="802.219" y="201.406" width="17.1867" height="17.1867" fill="#FFC20E"/>
<rect x="826.016" y="202.728" width="17.1867" height="17.1867" fill="#FFC20E"/>
<path d="M831.324 47L820.17 62.3375C817.417 66.123 817.658 71.3116 820.75 74.8255L824.775 79.399C827.838 82.8802 828.106 88.011 825.422 91.7927L815.46 105.831" stroke="black" stroke-opacity="0.5"/>
<path d="M814.156 58.2373L803.002 73.5748C800.249 77.3603 800.49 82.5489 803.582 86.0628L807.607 90.6363C810.67 94.1176 810.938 99.2483 808.254 103.03L798.292 117.069" stroke="black" stroke-opacity="0.5"/>
<rect x="965" y="25" width="287" height="287" rx="20" fill="#F4F4F4"/>
<path d="M1045.89 284H1038.81L1029.57 255.44H1036.01L1042.37 275.52H1042.45L1048.89 255.44H1055.37L1045.89 284ZM1062.34 260.12H1056.66V255.44H1062.34V260.12ZM1056.66 263.32H1062.34V284H1056.66V263.32ZM1071.21 277.28C1071.21 277.893 1071.33 278.427 1071.57 278.88C1071.84 279.307 1072.17 279.667 1072.57 279.96C1072.97 280.227 1073.43 280.427 1073.93 280.56C1074.47 280.693 1075.01 280.76 1075.57 280.76C1075.97 280.76 1076.39 280.72 1076.81 280.64C1077.27 280.533 1077.67 280.387 1078.01 280.2C1078.39 279.987 1078.69 279.72 1078.93 279.4C1079.17 279.053 1079.29 278.627 1079.29 278.12C1079.29 277.267 1078.72 276.627 1077.57 276.2C1076.45 275.773 1074.88 275.347 1072.85 274.92C1072.03 274.733 1071.21 274.52 1070.41 274.28C1069.64 274.013 1068.95 273.68 1068.33 273.28C1067.72 272.853 1067.23 272.333 1066.85 271.72C1066.48 271.08 1066.29 270.307 1066.29 269.4C1066.29 268.067 1066.55 266.973 1067.05 266.12C1067.59 265.267 1068.28 264.6 1069.13 264.12C1069.99 263.613 1070.95 263.267 1072.01 263.08C1073.08 262.867 1074.17 262.76 1075.29 262.76C1076.41 262.76 1077.49 262.867 1078.53 263.08C1079.6 263.293 1080.55 263.653 1081.37 264.16C1082.2 264.667 1082.88 265.347 1083.41 266.2C1083.97 267.027 1084.31 268.08 1084.41 269.36H1079.01C1078.93 268.267 1078.52 267.533 1077.77 267.16C1077.03 266.76 1076.15 266.56 1075.13 266.56C1074.81 266.56 1074.47 266.587 1074.09 266.64C1073.72 266.667 1073.37 266.747 1073.05 266.88C1072.76 267.013 1072.51 267.213 1072.29 267.48C1072.08 267.72 1071.97 268.053 1071.97 268.48C1071.97 268.987 1072.16 269.4 1072.53 269.72C1072.91 270.04 1073.39 270.307 1073.97 270.52C1074.59 270.707 1075.28 270.88 1076.05 271.04C1076.83 271.2 1077.61 271.373 1078.41 271.56C1079.24 271.747 1080.04 271.973 1080.81 272.24C1081.61 272.507 1082.32 272.867 1082.93 273.32C1083.55 273.747 1084.04 274.293 1084.41 274.96C1084.79 275.6 1084.97 276.4 1084.97 277.36C1084.97 278.72 1084.69 279.867 1084.13 280.8C1083.6 281.707 1082.89 282.44 1082.01 283C1081.13 283.56 1080.12 283.947 1078.97 284.16C1077.85 284.4 1076.71 284.52 1075.53 284.52C1074.33 284.52 1073.16 284.4 1072.01 284.16C1070.87 283.92 1069.84 283.52 1068.93 282.96C1068.05 282.4 1067.32 281.667 1066.73 280.76C1066.17 279.827 1065.87 278.667 1065.81 277.28H1071.21ZM1107.7 284H1102.3V281.12H1102.18C1101.46 282.32 1100.52 283.187 1099.38 283.72C1098.23 284.253 1097.06 284.52 1095.86 284.52C1094.34 284.52 1093.08 284.32 1092.1 283.92C1091.14 283.52 1090.38 282.96 1089.82 282.24C1089.26 281.493 1088.86 280.6 1088.62 279.56C1088.4 278.493 1088.3 277.32 1088.3 276.04V263.32H1093.98V275C1093.98 276.707 1094.24 277.987 1094.78 278.84C1095.31 279.667 1096.26 280.08 1097.62 280.08C1099.16 280.08 1100.28 279.627 1100.98 278.72C1101.67 277.787 1102.02 276.267 1102.02 274.16V263.32H1107.7V284ZM1111.77 269.68C1111.85 268.347 1112.18 267.24 1112.77 266.36C1113.35 265.48 1114.1 264.773 1115.01 264.24C1115.91 263.707 1116.93 263.333 1118.05 263.12C1119.19 262.88 1120.34 262.76 1121.49 262.76C1122.53 262.76 1123.58 262.84 1124.65 263C1125.71 263.133 1126.69 263.413 1127.57 263.84C1128.45 264.267 1129.17 264.867 1129.73 265.64C1130.29 266.387 1130.57 267.387 1130.57 268.64V279.4C1130.57 280.333 1130.62 281.227 1130.73 282.08C1130.83 282.933 1131.02 283.573 1131.29 284H1125.53C1125.42 283.68 1125.33 283.36 1125.25 283.04C1125.19 282.693 1125.15 282.347 1125.13 282C1124.22 282.933 1123.15 283.587 1121.93 283.96C1120.7 284.333 1119.45 284.52 1118.17 284.52C1117.18 284.52 1116.26 284.4 1115.41 284.16C1114.55 283.92 1113.81 283.547 1113.17 283.04C1112.53 282.533 1112.02 281.893 1111.65 281.12C1111.3 280.347 1111.13 279.427 1111.13 278.36C1111.13 277.187 1111.33 276.227 1111.73 275.48C1112.15 274.707 1112.69 274.093 1113.33 273.64C1113.99 273.187 1114.74 272.853 1115.57 272.64C1116.42 272.4 1117.27 272.213 1118.13 272.08C1118.98 271.947 1119.82 271.84 1120.65 271.76C1121.47 271.68 1122.21 271.56 1122.85 271.4C1123.49 271.24 1123.99 271.013 1124.37 270.72C1124.74 270.4 1124.91 269.947 1124.89 269.36C1124.89 268.747 1124.78 268.267 1124.57 267.92C1124.38 267.547 1124.11 267.267 1123.77 267.08C1123.45 266.867 1123.06 266.733 1122.61 266.68C1122.18 266.6 1121.71 266.56 1121.21 266.56C1120.09 266.56 1119.21 266.8 1118.57 267.28C1117.93 267.76 1117.55 268.56 1117.45 269.68H1111.77ZM1124.89 273.88C1124.65 274.093 1124.34 274.267 1123.97 274.4C1123.62 274.507 1123.23 274.6 1122.81 274.68C1122.41 274.76 1121.98 274.827 1121.53 274.88C1121.07 274.933 1120.62 275 1120.17 275.08C1119.74 275.16 1119.31 275.267 1118.89 275.4C1118.49 275.533 1118.13 275.72 1117.81 275.96C1117.51 276.173 1117.27 276.453 1117.09 276.8C1116.9 277.147 1116.81 277.587 1116.81 278.12C1116.81 278.627 1116.9 279.053 1117.09 279.4C1117.27 279.747 1117.53 280.027 1117.85 280.24C1118.17 280.427 1118.54 280.56 1118.97 280.64C1119.39 280.72 1119.83 280.76 1120.29 280.76C1121.41 280.76 1122.27 280.573 1122.89 280.2C1123.5 279.827 1123.95 279.387 1124.25 278.88C1124.54 278.347 1124.71 277.813 1124.77 277.28C1124.85 276.747 1124.89 276.32 1124.89 276V273.88ZM1135.14 255.44H1140.82V284H1135.14V255.44ZM1151.13 260.12H1145.45V255.44H1151.13V260.12ZM1145.45 263.32H1151.13V284H1145.45V263.32ZM1154.32 279.72L1165.08 267.6H1155.12V263.32H1172.56V267.6L1161.8 279.72H1173.32V284H1154.32V279.72ZM1190.26 271.44C1190 270 1189.52 268.907 1188.82 268.16C1188.16 267.413 1187.13 267.04 1185.74 267.04C1184.84 267.04 1184.08 267.2 1183.46 267.52C1182.88 267.813 1182.4 268.187 1182.02 268.64C1181.68 269.093 1181.42 269.573 1181.26 270.08C1181.13 270.587 1181.05 271.04 1181.02 271.44H1190.26ZM1181.02 275.04C1181.1 276.88 1181.57 278.213 1182.42 279.04C1183.28 279.867 1184.5 280.28 1186.1 280.28C1187.25 280.28 1188.24 280 1189.06 279.44C1189.89 278.853 1190.4 278.24 1190.58 277.6H1195.58C1194.78 280.08 1193.56 281.853 1191.9 282.92C1190.25 283.987 1188.25 284.52 1185.9 284.52C1184.28 284.52 1182.81 284.267 1181.5 283.76C1180.2 283.227 1179.09 282.48 1178.18 281.52C1177.28 280.56 1176.57 279.413 1176.06 278.08C1175.58 276.747 1175.34 275.28 1175.34 273.68C1175.34 272.133 1175.6 270.693 1176.1 269.36C1176.61 268.027 1177.33 266.88 1178.26 265.92C1179.2 264.933 1180.3 264.16 1181.58 263.6C1182.89 263.04 1184.33 262.76 1185.9 262.76C1187.66 262.76 1189.2 263.107 1190.5 263.8C1191.81 264.467 1192.88 265.373 1193.7 266.52C1194.56 267.667 1195.17 268.973 1195.54 270.44C1195.92 271.907 1196.05 273.44 1195.94 275.04H1181.02Z" fill="black"/>
<rect x="983" y="48" width="246" height="164" rx="10" fill="#D9D9D9"/>
<rect x="1011" y="67" width="85" height="57" rx="2" fill="white"/>
<rect x="1027" y="80" width="11" height="38" fill="#FFC20E"/>
<rect x="1042" y="100" width="11" height="18" fill="#FFC20E"/>
<rect x="1057" y="86" width="11" height="32" fill="#FFC20E"/>
<rect x="1073" y="86" width="11" height="32" fill="#FFC20E"/>
<rect x="1011" y="134" width="85" height="57" rx="2" fill="white"/>
<path d="M1015.31 173.587L1042.5 154.5L1075 161.001L1083.31 142.587" stroke="black" stroke-opacity="0.5"/>
<rect x="1108" y="138" width="85" height="57" rx="2" fill="white"/>
<rect x="1118" y="147" width="55" height="4" fill="#E2231A"/>
<rect x="1118" y="156" width="27" height="4" fill="#E2231A"/>
<rect x="1118" y="165" width="42" height="4" fill="#E2231A"/>
<rect x="1118" y="173" width="12" height="4" fill="#E2231A"/>
<rect x="1118" y="181" width="59" height="4" fill="#E2231A"/>
<rect x="1108" y="67" width="85" height="57" rx="2" fill="white"/>
<circle cx="1130" cy="90" r="9" fill="#D9D9D9"/>
<path d="M1176.5 85.9072C1176.5 92.5346 1171.13 97.9072 1164.5 97.9072C1157.87 97.9072 1152.5 92.5346 1152.5 85.9072C1152.5 79.2798 1157.87 73.9072 1164.5 73.9072C1171.13 73.9072 1176.5 79.2798 1176.5 85.9072Z" fill="#D9D9D9"/>
<circle cx="1146" cy="97" r="7" fill="#D9D9D9"/>
<rect x="1277" y="25" width="287" height="285" rx="20" fill="#F4F4F4"/>
<path d="M1351.53 259.04C1351.42 258.32 1351.18 257.667 1350.81 257.08C1350.43 256.467 1349.97 255.933 1349.41 255.48C1348.85 255.027 1348.21 254.68 1347.49 254.44C1346.79 254.173 1346.06 254.04 1345.29 254.04C1343.87 254.04 1342.67 254.32 1341.69 254.88C1340.7 255.413 1339.9 256.147 1339.29 257.08C1338.67 257.987 1338.22 259.027 1337.93 260.2C1337.66 261.373 1337.53 262.587 1337.53 263.84C1337.53 265.04 1337.66 266.213 1337.93 267.36C1338.22 268.48 1338.67 269.493 1339.29 270.4C1339.9 271.307 1340.7 272.04 1341.69 272.6C1342.67 273.133 1343.87 273.4 1345.29 273.4C1347.21 273.4 1348.7 272.813 1349.77 271.64C1350.86 270.467 1351.53 268.92 1351.77 267H1357.85C1357.69 268.787 1357.27 270.4 1356.61 271.84C1355.94 273.28 1355.06 274.507 1353.97 275.52C1352.87 276.533 1351.59 277.307 1350.13 277.84C1348.66 278.373 1347.05 278.64 1345.29 278.64C1343.1 278.64 1341.13 278.267 1339.37 277.52C1337.63 276.747 1336.17 275.693 1334.97 274.36C1333.77 273.027 1332.85 271.467 1332.21 269.68C1331.57 267.867 1331.25 265.92 1331.25 263.84C1331.25 261.707 1331.57 259.733 1332.21 257.92C1332.85 256.08 1333.77 254.48 1334.97 253.12C1336.17 251.76 1337.63 250.693 1339.37 249.92C1341.13 249.147 1343.1 248.76 1345.29 248.76C1346.86 248.76 1348.34 248.987 1349.73 249.44C1351.14 249.893 1352.39 250.56 1353.49 251.44C1354.61 252.293 1355.53 253.36 1356.25 254.64C1356.97 255.92 1357.42 257.387 1357.61 259.04H1351.53ZM1366.58 267.68C1366.58 268.507 1366.66 269.32 1366.82 270.12C1366.98 270.893 1367.24 271.6 1367.62 272.24C1368.02 272.853 1368.54 273.347 1369.18 273.72C1369.82 274.093 1370.62 274.28 1371.58 274.28C1372.54 274.28 1373.34 274.093 1373.98 273.72C1374.64 273.347 1375.16 272.853 1375.54 272.24C1375.94 271.6 1376.22 270.893 1376.38 270.12C1376.54 269.32 1376.62 268.507 1376.62 267.68C1376.62 266.853 1376.54 266.04 1376.38 265.24C1376.22 264.44 1375.94 263.733 1375.54 263.12C1375.16 262.507 1374.64 262.013 1373.98 261.64C1373.34 261.24 1372.54 261.04 1371.58 261.04C1370.62 261.04 1369.82 261.24 1369.18 261.64C1368.54 262.013 1368.02 262.507 1367.62 263.12C1367.24 263.733 1366.98 264.44 1366.82 265.24C1366.66 266.04 1366.58 266.853 1366.58 267.68ZM1360.9 267.68C1360.9 266.027 1361.15 264.533 1361.66 263.2C1362.16 261.84 1362.88 260.693 1363.82 259.76C1364.75 258.8 1365.87 258.067 1367.18 257.56C1368.48 257.027 1369.95 256.76 1371.58 256.76C1373.2 256.76 1374.67 257.027 1375.98 257.56C1377.31 258.067 1378.44 258.8 1379.38 259.76C1380.31 260.693 1381.03 261.84 1381.54 263.2C1382.04 264.533 1382.3 266.027 1382.3 267.68C1382.3 269.333 1382.04 270.827 1381.54 272.16C1381.03 273.493 1380.31 274.64 1379.38 275.6C1378.44 276.533 1377.31 277.253 1375.98 277.76C1374.67 278.267 1373.2 278.52 1371.58 278.52C1369.95 278.52 1368.48 278.267 1367.18 277.76C1365.87 277.253 1364.75 276.533 1363.82 275.6C1362.88 274.64 1362.16 273.493 1361.66 272.16C1361.15 270.827 1360.9 269.333 1360.9 267.68ZM1386.15 257.32H1391.51V260.12H1391.59C1392.33 259.053 1393.23 258.227 1394.27 257.64C1395.33 257.053 1396.55 256.76 1397.91 256.76C1399.21 256.76 1400.4 257.013 1401.47 257.52C1402.56 258.027 1403.39 258.92 1403.95 260.2C1404.56 259.293 1405.39 258.493 1406.43 257.8C1407.49 257.107 1408.75 256.76 1410.19 256.76C1411.28 256.76 1412.29 256.893 1413.23 257.16C1414.16 257.427 1414.96 257.853 1415.63 258.44C1416.29 259.027 1416.81 259.8 1417.19 260.76C1417.56 261.693 1417.75 262.827 1417.75 264.16V278H1412.07V266.28C1412.07 265.587 1412.04 264.933 1411.99 264.32C1411.93 263.707 1411.79 263.173 1411.55 262.72C1411.31 262.267 1410.95 261.907 1410.47 261.64C1410.01 261.373 1409.39 261.24 1408.59 261.24C1407.79 261.24 1407.13 261.4 1406.63 261.72C1406.15 262.013 1405.76 262.413 1405.47 262.92C1405.2 263.4 1405.01 263.96 1404.91 264.6C1404.83 265.213 1404.79 265.84 1404.79 266.48V278H1399.11V266.4C1399.11 265.787 1399.09 265.187 1399.07 264.6C1399.04 263.987 1398.92 263.427 1398.71 262.92C1398.52 262.413 1398.19 262.013 1397.71 261.72C1397.25 261.4 1396.57 261.24 1395.67 261.24C1395.4 261.24 1395.04 261.307 1394.59 261.44C1394.16 261.547 1393.73 261.773 1393.31 262.12C1392.91 262.44 1392.56 262.92 1392.27 263.56C1391.97 264.173 1391.83 264.987 1391.83 266V278H1386.15V257.32ZM1432.68 274.28C1433.61 274.28 1434.38 274.093 1435 273.72C1435.64 273.347 1436.14 272.867 1436.52 272.28C1436.92 271.667 1437.2 270.96 1437.36 270.16C1437.52 269.36 1437.6 268.547 1437.6 267.72C1437.6 266.893 1437.5 266.08 1437.32 265.28C1437.16 264.48 1436.88 263.773 1436.48 263.16C1436.08 262.52 1435.56 262.013 1434.92 261.64C1434.3 261.24 1433.54 261.04 1432.64 261.04C1431.7 261.04 1430.92 261.24 1430.28 261.64C1429.66 262.013 1429.16 262.507 1428.76 263.12C1428.38 263.733 1428.12 264.44 1427.96 265.24C1427.8 266.04 1427.72 266.867 1427.72 267.72C1427.72 268.547 1427.8 269.36 1427.96 270.16C1428.14 270.96 1428.42 271.667 1428.8 272.28C1429.2 272.867 1429.72 273.347 1430.36 273.72C1431 274.093 1431.77 274.28 1432.68 274.28ZM1422.24 257.32H1427.64V259.96H1427.72C1428.41 258.84 1429.29 258.027 1430.36 257.52C1431.42 257.013 1432.6 256.76 1433.88 256.76C1435.5 256.76 1436.9 257.067 1438.08 257.68C1439.25 258.293 1440.22 259.107 1441 260.12C1441.77 261.133 1442.34 262.32 1442.72 263.68C1443.09 265.013 1443.28 266.413 1443.28 267.88C1443.28 269.267 1443.09 270.6 1442.72 271.88C1442.34 273.16 1441.77 274.293 1441 275.28C1440.25 276.267 1439.3 277.053 1438.16 277.64C1437.04 278.227 1435.72 278.52 1434.2 278.52C1432.92 278.52 1431.73 278.267 1430.64 277.76C1429.57 277.227 1428.69 276.453 1428 275.44H1427.92V285.24H1422.24V257.32ZM1466.09 278H1460.69V275.12H1460.57C1459.85 276.32 1458.92 277.187 1457.77 277.72C1456.62 278.253 1455.45 278.52 1454.25 278.52C1452.73 278.52 1451.48 278.32 1450.49 277.92C1449.53 277.52 1448.77 276.96 1448.21 276.24C1447.65 275.493 1447.25 274.6 1447.01 273.56C1446.8 272.493 1446.69 271.32 1446.69 270.04V257.32H1452.37V269C1452.37 270.707 1452.64 271.987 1453.17 272.84C1453.7 273.667 1454.65 274.08 1456.01 274.08C1457.56 274.08 1458.68 273.627 1459.37 272.72C1460.06 271.787 1460.41 270.267 1460.41 268.16V257.32H1466.09V278ZM1477.6 257.32H1481.76V261.12H1477.6V271.36C1477.6 272.32 1477.76 272.96 1478.08 273.28C1478.4 273.6 1479.04 273.76 1480 273.76C1480.32 273.76 1480.63 273.747 1480.92 273.72C1481.22 273.693 1481.5 273.653 1481.76 273.6V278C1481.28 278.08 1480.75 278.133 1480.16 278.16C1479.58 278.187 1479 278.2 1478.44 278.2C1477.56 278.2 1476.72 278.133 1475.92 278C1475.15 277.893 1474.46 277.667 1473.84 277.32C1473.26 276.973 1472.79 276.48 1472.44 275.84C1472.1 275.2 1471.92 274.36 1471.92 273.32V261.12H1468.48V257.32H1471.92V251.12H1477.6V257.32ZM1498.38 265.44C1498.12 264 1497.64 262.907 1496.94 262.16C1496.28 261.413 1495.25 261.04 1493.86 261.04C1492.96 261.04 1492.2 261.2 1491.58 261.52C1491 261.813 1490.52 262.187 1490.14 262.64C1489.8 263.093 1489.54 263.573 1489.38 264.08C1489.25 264.587 1489.17 265.04 1489.14 265.44H1498.38ZM1489.14 269.04C1489.22 270.88 1489.69 272.213 1490.54 273.04C1491.4 273.867 1492.62 274.28 1494.22 274.28C1495.37 274.28 1496.36 274 1497.18 273.44C1498.01 272.853 1498.52 272.24 1498.7 271.6H1503.7C1502.9 274.08 1501.68 275.853 1500.02 276.92C1498.37 277.987 1496.37 278.52 1494.02 278.52C1492.4 278.52 1490.93 278.267 1489.62 277.76C1488.32 277.227 1487.21 276.48 1486.3 275.52C1485.4 274.56 1484.69 273.413 1484.18 272.08C1483.7 270.747 1483.46 269.28 1483.46 267.68C1483.46 266.133 1483.72 264.693 1484.22 263.36C1484.73 262.027 1485.45 260.88 1486.38 259.92C1487.32 258.933 1488.42 258.16 1489.7 257.6C1491.01 257.04 1492.45 256.76 1494.02 256.76C1495.78 256.76 1497.32 257.107 1498.62 257.8C1499.93 258.467 1501 259.373 1501.82 260.52C1502.68 261.667 1503.29 262.973 1503.66 264.44C1504.04 265.907 1504.17 267.44 1504.06 269.04H1489.14Z" fill="black"/>
<path d="M1550.56 163.888C1550.56 216.56 1492.68 219 1421.28 219C1349.88 219 1292 216.56 1292 163.888C1292 111.216 1386.88 84.1519 1418.41 84.1519C1474.31 84.1519 1550.56 111.216 1550.56 163.888Z" fill="#D9D9D9"/>
<ellipse cx="1409.68" cy="102.937" rx="80.1607" ry="42.9367" fill="#D9D9D9"/>
<rect x="1370.73" y="95.3525" width="39.5003" height="38.8442" fill="#E2231A"/>
<rect x="1377.32" y="101.827" width="26.3335" height="25.8961" fill="#F4F4F4"/>
<line x1="1370.73" y1="110.506" x2="1359.54" y2="110.506" stroke="#E2231A" stroke-width="7"/>
<line x1="1370.73" y1="110.506" x2="1359.54" y2="110.506" stroke="#E2231A" stroke-width="7"/>
<line x1="1370.73" y1="110.506" x2="1359.54" y2="110.506" stroke="#E2231A" stroke-width="7"/>
<line x1="1370.73" y1="120.864" x2="1359.54" y2="120.864" stroke="#E2231A" stroke-width="7"/>
<line x1="1370.73" y1="120.864" x2="1359.54" y2="120.864" stroke="#E2231A" stroke-width="7"/>
<line x1="1370.73" y1="120.864" x2="1359.54" y2="120.864" stroke="#E2231A" stroke-width="7"/>
<line x1="1420.77" y1="110.506" x2="1409.58" y2="110.506" stroke="#E2231A" stroke-width="7"/>
<line x1="1420.77" y1="110.506" x2="1409.58" y2="110.506" stroke="#E2231A" stroke-width="7"/>
<line x1="1420.77" y1="110.506" x2="1409.58" y2="110.506" stroke="#E2231A" stroke-width="7"/>
<line x1="1420.77" y1="120.864" x2="1409.58" y2="120.864" stroke="#E2231A" stroke-width="7"/>
<line x1="1420.77" y1="120.864" x2="1409.58" y2="120.864" stroke="#E2231A" stroke-width="7"/>
<line x1="1420.77" y1="120.864" x2="1409.58" y2="120.864" stroke="#E2231A" stroke-width="7"/>
<line x1="1386.74" y1="84.3467" x2="1386.74" y2="95.3525" stroke="#E2231A" stroke-width="7"/>
<line x1="1386.74" y1="84.3467" x2="1386.74" y2="95.3525" stroke="#E2231A" stroke-width="7"/>
<line x1="1386.74" y1="84.3467" x2="1386.74" y2="95.3525" stroke="#E2231A" stroke-width="7"/>
<line x1="1397.28" y1="84.3467" x2="1397.28" y2="95.3525" stroke="#E2231A" stroke-width="7"/>
<line x1="1397.28" y1="84.3467" x2="1397.28" y2="95.3525" stroke="#E2231A" stroke-width="7"/>
<line x1="1397.28" y1="84.3467" x2="1397.28" y2="95.3525" stroke="#E2231A" stroke-width="7"/>
<line x1="1386.08" y1="134.197" x2="1386.08" y2="145.203" stroke="#E2231A" stroke-width="7"/>
<line x1="1386.08" y1="134.197" x2="1386.08" y2="145.203" stroke="#E2231A" stroke-width="7"/>
<line x1="1386.08" y1="134.197" x2="1386.08" y2="145.203" stroke="#E2231A" stroke-width="7"/>
<line x1="1396.62" y1="134.197" x2="1396.62" y2="145.203" stroke="#E2231A" stroke-width="7"/>
<line x1="1396.62" y1="134.197" x2="1396.62" y2="145.203" stroke="#E2231A" stroke-width="7"/>
<line x1="1396.62" y1="134.197" x2="1396.62" y2="145.203" stroke="#E2231A" stroke-width="7"/>
<rect x="1434.86" y="95.1577" width="39.5003" height="38.8442" fill="#E2231A"/>
<rect x="1441.45" y="101.632" width="26.3335" height="25.8961" fill="#F4F4F4"/>
<line x1="1434.86" y1="110.311" x2="1423.67" y2="110.311" stroke="#E2231A" stroke-width="7"/>
<line x1="1434.86" y1="110.311" x2="1423.67" y2="110.311" stroke="#E2231A" stroke-width="7"/>
<line x1="1434.86" y1="110.311" x2="1423.67" y2="110.311" stroke="#E2231A" stroke-width="7"/>
<line x1="1434.86" y1="120.669" x2="1423.67" y2="120.669" stroke="#E2231A" stroke-width="7"/>
<line x1="1434.86" y1="120.669" x2="1423.67" y2="120.669" stroke="#E2231A" stroke-width="7"/>
<line x1="1434.86" y1="120.669" x2="1423.67" y2="120.669" stroke="#E2231A" stroke-width="7"/>
<line x1="1484.9" y1="110.311" x2="1473.71" y2="110.311" stroke="#E2231A" stroke-width="7"/>
<line x1="1484.9" y1="110.311" x2="1473.71" y2="110.311" stroke="#E2231A" stroke-width="7"/>
<line x1="1484.9" y1="110.311" x2="1473.71" y2="110.311" stroke="#E2231A" stroke-width="7"/>
<line x1="1484.9" y1="120.669" x2="1473.71" y2="120.669" stroke="#E2231A" stroke-width="7"/>
<line x1="1484.9" y1="120.669" x2="1473.71" y2="120.669" stroke="#E2231A" stroke-width="7"/>
<line x1="1484.9" y1="120.669" x2="1473.71" y2="120.669" stroke="#E2231A" stroke-width="7"/>
<line x1="1450.87" y1="84.1519" x2="1450.87" y2="95.1577" stroke="#E2231A" stroke-width="7"/>
<line x1="1450.87" y1="84.1519" x2="1450.87" y2="95.1577" stroke="#E2231A" stroke-width="7"/>
<line x1="1450.87" y1="84.1519" x2="1450.87" y2="95.1577" stroke="#E2231A" stroke-width="7"/>
<line x1="1461.41" y1="84.1519" x2="1461.41" y2="95.1577" stroke="#E2231A" stroke-width="7"/>
<line x1="1461.41" y1="84.1519" x2="1461.41" y2="95.1577" stroke="#E2231A" stroke-width="7"/>
<line x1="1461.41" y1="84.1519" x2="1461.41" y2="95.1577" stroke="#E2231A" stroke-width="7"/>
<line x1="1450.21" y1="134.002" x2="1450.21" y2="145.008" stroke="#E2231A" stroke-width="7"/>
<line x1="1450.21" y1="134.002" x2="1450.21" y2="145.008" stroke="#E2231A" stroke-width="7"/>
<line x1="1450.21" y1="134.002" x2="1450.21" y2="145.008" stroke="#E2231A" stroke-width="7"/>
<line x1="1460.75" y1="134.002" x2="1460.75" y2="145.008" stroke="#E2231A" stroke-width="7"/>
<line x1="1460.75" y1="134.002" x2="1460.75" y2="145.008" stroke="#E2231A" stroke-width="7"/>
<line x1="1460.75" y1="134.002" x2="1460.75" y2="145.008" stroke="#E2231A" stroke-width="7"/>
<rect x="1370.05" y="158.221" width="39.5003" height="38.8442" fill="#E2231A"/>
<rect x="1376.63" y="164.695" width="26.3335" height="25.8961" fill="#F4F4F4"/>
<line x1="1370.05" y1="173.375" x2="1358.86" y2="173.375" stroke="#E2231A" stroke-width="7"/>
<line x1="1370.05" y1="173.375" x2="1358.86" y2="173.375" stroke="#E2231A" stroke-width="7"/>
<line x1="1370.05" y1="173.375" x2="1358.86" y2="173.375" stroke="#E2231A" stroke-width="7"/>
<line x1="1370.05" y1="183.733" x2="1358.86" y2="183.733" stroke="#E2231A" stroke-width="7"/>
<line x1="1370.05" y1="183.733" x2="1358.86" y2="183.733" stroke="#E2231A" stroke-width="7"/>
<line x1="1370.05" y1="183.733" x2="1358.86" y2="183.733" stroke="#E2231A" stroke-width="7"/>
<line x1="1420.09" y1="173.375" x2="1408.9" y2="173.375" stroke="#E2231A" stroke-width="7"/>
<line x1="1420.09" y1="173.375" x2="1408.9" y2="173.375" stroke="#E2231A" stroke-width="7"/>
<line x1="1420.09" y1="173.375" x2="1408.9" y2="173.375" stroke="#E2231A" stroke-width="7"/>
<line x1="1420.09" y1="183.733" x2="1408.9" y2="183.733" stroke="#E2231A" stroke-width="7"/>
<line x1="1420.09" y1="183.733" x2="1408.9" y2="183.733" stroke="#E2231A" stroke-width="7"/>
<line x1="1420.09" y1="183.733" x2="1408.9" y2="183.733" stroke="#E2231A" stroke-width="7"/>
<line x1="1386.06" y1="147.215" x2="1386.06" y2="158.221" stroke="#E2231A" stroke-width="7"/>
<line x1="1386.06" y1="147.215" x2="1386.06" y2="158.221" stroke="#E2231A" stroke-width="7"/>
<line x1="1386.06" y1="147.215" x2="1386.06" y2="158.221" stroke="#E2231A" stroke-width="7"/>
<line x1="1396.6" y1="147.215" x2="1396.6" y2="158.221" stroke="#E2231A" stroke-width="7"/>
<line x1="1396.6" y1="147.215" x2="1396.6" y2="158.221" stroke="#E2231A" stroke-width="7"/>
<line x1="1396.6" y1="147.215" x2="1396.6" y2="158.221" stroke="#E2231A" stroke-width="7"/>
<line x1="1385.4" y1="197.065" x2="1385.4" y2="208.071" stroke="#E2231A" stroke-width="7"/>
<line x1="1385.4" y1="197.065" x2="1385.4" y2="208.071" stroke="#E2231A" stroke-width="7"/>
<line x1="1385.4" y1="197.065" x2="1385.4" y2="208.071" stroke="#E2231A" stroke-width="7"/>
<line x1="1395.93" y1="197.065" x2="1395.93" y2="208.071" stroke="#E2231A" stroke-width="7"/>
<line x1="1395.93" y1="197.065" x2="1395.93" y2="208.071" stroke="#E2231A" stroke-width="7"/>
<line x1="1395.93" y1="197.065" x2="1395.93" y2="208.071" stroke="#E2231A" stroke-width="7"/>
<rect x="1434.18" y="158.221" width="39.5003" height="38.8442" fill="#E2231A"/>
<rect x="1440.76" y="164.695" width="26.3335" height="25.8961" fill="#F4F4F4"/>
<line x1="1434.18" y1="173.375" x2="1422.98" y2="173.375" stroke="#E2231A" stroke-width="7"/>
<line x1="1434.18" y1="173.375" x2="1422.98" y2="173.375" stroke="#E2231A" stroke-width="7"/>
<line x1="1434.18" y1="173.375" x2="1422.98" y2="173.375" stroke="#E2231A" stroke-width="7"/>
<line x1="1434.18" y1="183.733" x2="1422.98" y2="183.733" stroke="#E2231A" stroke-width="7"/>
<line x1="1434.18" y1="183.733" x2="1422.98" y2="183.733" stroke="#E2231A" stroke-width="7"/>
<line x1="1434.18" y1="183.733" x2="1422.98" y2="183.733" stroke="#E2231A" stroke-width="7"/>
<line x1="1484.21" y1="173.375" x2="1473.02" y2="173.375" stroke="#E2231A" stroke-width="7"/>
<line x1="1484.21" y1="173.375" x2="1473.02" y2="173.375" stroke="#E2231A" stroke-width="7"/>
<line x1="1484.21" y1="173.375" x2="1473.02" y2="173.375" stroke="#E2231A" stroke-width="7"/>
<line x1="1484.21" y1="183.733" x2="1473.02" y2="183.733" stroke="#E2231A" stroke-width="7"/>
<line x1="1484.21" y1="183.733" x2="1473.02" y2="183.733" stroke="#E2231A" stroke-width="7"/>
<line x1="1484.21" y1="183.733" x2="1473.02" y2="183.733" stroke="#E2231A" stroke-width="7"/>
<line x1="1450.19" y1="147.215" x2="1450.19" y2="158.221" stroke="#E2231A" stroke-width="7"/>
<line x1="1450.19" y1="147.215" x2="1450.19" y2="158.221" stroke="#E2231A" stroke-width="7"/>
<line x1="1450.19" y1="147.215" x2="1450.19" y2="158.221" stroke="#E2231A" stroke-width="7"/>
<line x1="1460.72" y1="147.215" x2="1460.72" y2="158.221" stroke="#E2231A" stroke-width="7"/>
<line x1="1460.72" y1="147.215" x2="1460.72" y2="158.221" stroke="#E2231A" stroke-width="7"/>
<line x1="1460.72" y1="147.215" x2="1460.72" y2="158.221" stroke="#E2231A" stroke-width="7"/>
<line x1="1449.53" y1="197.065" x2="1449.53" y2="208.071" stroke="#E2231A" stroke-width="7"/>
<line x1="1449.53" y1="197.065" x2="1449.53" y2="208.071" stroke="#E2231A" stroke-width="7"/>
<line x1="1449.53" y1="197.065" x2="1449.53" y2="208.071" stroke="#E2231A" stroke-width="7"/>
<line x1="1460.06" y1="197.065" x2="1460.06" y2="208.071" stroke="#E2231A" stroke-width="7"/>
<line x1="1460.06" y1="197.065" x2="1460.06" y2="208.071" stroke="#E2231A" stroke-width="7"/>
<line x1="1460.06" y1="197.065" x2="1460.06" y2="208.071" stroke="#E2231A" stroke-width="7"/>
</g>
<defs>
<filter id="filter0_d_1132_47" x="0" y="0" width="1593" height="345" filterUnits="userSpaceOnUse" color-interpolation-filters="sRGB">
<feFlood flood-opacity="0" result="BackgroundImageFix"/>
<feColorMatrix in="SourceAlpha" type="matrix" values="0 0 0 0 0 0 0 0 0 0 0 0 0 0 0 0 0 0 127 0" result="hardAlpha"/>
<feOffset dy="4"/>
<feGaussianBlur stdDeviation="2"/>
<feComposite in2="hardAlpha" operator="out"/>
<feColorMatrix type="matrix" values="0 0 0 0 0 0 0 0 0 0 0 0 0 0 0 0 0 0 0.25 0"/>
<feBlend mode="normal" in2="BackgroundImageFix" result="effect1_dropShadow_1132_47"/>
<feBlend mode="normal" in="SourceGraphic" in2="effect1_dropShadow_1132_47" result="shape"/>
</filter>
</defs>
</svg>
