<svg width="400" height="116" viewBox="0 0 400 116" fill="none" xmlns="http://www.w3.org/2000/svg">
<rect width="400" height="116" fill="white"/>
<path d="M16 87V63.047C16 58.3651 16.2899 53.4264 19.2736 49.8183C21.7034 46.8801 25.7807 44.0001 32.4291 44.0001C40.3056 44.0001 44.2843 48.0636 46.2365 51.4737C47.87 54.3271 48 57.7153 48 61.0032V87" stroke="black" stroke-width="18"/>
<path d="M48 87V63.047C48 58.3651 48.2899 53.4264 51.2736 49.8183C53.7034 46.8801 57.7807 44.0001 64.4291 44.0001C72.3056 44.0001 76.2843 48.0636 78.2365 51.4737C79.87 54.3271 80 57.7153 80 61.0032V87" stroke="black" stroke-width="18"/>
<path d="M16 87V63.047C16 58.3651 16.2899 53.4264 19.2736 49.8183C21.7034 46.8801 25.7807 44.0001 32.4291 44.0001C40.3056 44.0001 44.2843 48.0636 46.2365 51.4737C47.87 54.3271 48 57.7153 48 61.0032V87" stroke="white" stroke-width="2"/>
<path d="M48 87V63.047C48 58.3651 48.2899 53.4264 51.2736 49.8183C53.7034 46.8801 57.7807 44.0001 64.4291 44.0001C72.3056 44.0001 76.2843 48.0636 78.2365 51.4737C79.87 54.3271 80 57.7153 80 61.0032V87" stroke="white" stroke-width="2"/>
<path d="M328 10C334.068 10 332.677 24.6827 332.677 24.6827C332.677 24.6827 345.861 19.1542 347.812 24.6827C349.784 30.2678 335.568 33.757 335.568 33.757C335.568 33.757 345.28 45.0834 340.245 48.4397C335.29 51.7425 328 39.3653 328 39.3653C328 39.3653 320.71 51.7425 315.755 48.4397C310.72 45.0834 320.432 33.757 320.432 33.757C320.432 33.757 306.216 30.2678 308.188 24.6827C310.139 19.1542 323.323 24.6827 323.323 24.6827C323.323 24.6827 321.932 10 328 10Z" fill="#E2231A"/>
<path d="M352 87C352 87 352 74.8756 352 64.0467C352 59.3648 352.29 54.4264 355.274 50.8183C357.703 47.8801 361.781 45.0001 368.429 45.0001C376.306 45.0001 380.284 49.0636 382.237 52.4737C383.87 55.3271 384 58.7101 384 61.998C384 68.3803 384 79.5584 384 87" stroke="black" stroke-width="18"/>
<path d="M352 87V64.047C352 59.3651 352.29 54.4264 355.274 50.8183C357.703 47.8801 361.781 45.0001 368.429 45.0001C376.306 45.0001 380.284 49.0636 382.237 52.4737C383.87 55.3271 384 58.7101 384 61.998C384 68.3803 384 79.5584 384 87" stroke="white" stroke-width="2"/>
<path d="M328 53L328 87.186" stroke="black" stroke-width="20"/>
<line x1="328" y1="53" x2="328" y2="88" stroke="white" stroke-width="2"/>
<path d="M136 88C136 88 136 71 136 61.5C136 55.5 130.655 45 119.5 45C108.345 45 102 54 102 61.5C101.999 73 110.275 79 121 79C124 79 120 79 123 79" stroke="black" stroke-width="18"/>
<path d="M136 88C136 88 136 71 136 61.5C136 55.5 130.655 45 119.5 45C108.345 45 102 54 102 61.5C101.999 73 110.275 79 121 79C124 79 120 79 123 79" stroke="white" stroke-width="2"/>
<path d="M179 79.0002C176 79.0002 180 79.0002 177 79.0002C166.275 79.0002 157.999 73.0002 158 61.5002C158 54.0002 164.345 45.0001 175.5 45.0001C186.655 45.0001 192 55.5002 192 61.5002C192 64.8526 192 73.6275 192 83C192 90 192 99 181.5 99C171 99 159 99 158 99" stroke="black" stroke-width="18"/>
<path d="M179 79.0002C176 79.0002 180 79.0002 177 79.0002C166.275 79.0002 157.999 73.0002 158 61.5002C158 54.0002 164.345 45.0001 175.5 45.0001C186.655 45.0001 192 55.5002 192 61.5002C192 64.8526 192 73.6275 192 83C192 90 192 99 181.5 99C171 99 159 99 158 99" stroke="white" stroke-width="2"/>
<path d="M248 88C248 88 248 71 248 61.5C248 55.5 242.655 45 231.5 45C220.345 45 214 54 214 61.5C213.999 73 222.275 79 233 79C236 79 232 79 235 79" stroke="black" stroke-width="18"/>
<path d="M248 88C248 88 248 71 248 61.5C248 55.5 242.655 45 231.5 45C220.345 45 214 54 214 61.5C213.999 73 222.275 79 233 79C236 79 232 79 235 79" stroke="white" stroke-width="2"/>
<path d="M313 46C307.109 46 298.135 46 287.183 46C276.474 46 270.28 54.3962 270.011 61.6098C270.005 61.773 270 65.8381 270 66" stroke="black" stroke-width="18"/>
<path d="M313 46C306.969 46 298.804 46 287.592 46C276.628 46 270.287 54.3962 270.011 61.6098C270.005 61.773 270 65.8381 270 66" stroke="white" stroke-width="2"/>
<path d="M261 80C265.909 80 280.555 80 289.681 80C298.605 80 303.767 71.6038 303.991 64.3902C303.996 64.227 304 60.1619 304 60" stroke="black" stroke-width="18"/>
<path d="M261 80C265.909 80 280.555 80 289.681 80C298.605 80 303.767 71.6038 303.991 64.3902C303.996 64.227 304 60.1619 304 60" stroke="white" stroke-width="2"/>
</svg>
