<svg width="451" height="116" viewBox="0 0 451 116" fill="none" xmlns="http://www.w3.org/2000/svg">
<path d="M16 87V63.047C16 58.3651 16.2899 53.4264 19.2736 49.8183C21.7034 46.8801 25.7807 44.0001 32.4291 44.0001C40.3056 44.0001 44.2843 48.0636 46.2365 51.4737C47.87 54.3271 48 57.7153 48 61.0032V87" stroke="black" stroke-width="18"/>
<path d="M48 87V63.047C48 58.3651 48.2899 53.4264 51.2736 49.8183C53.7034 46.8801 57.7807 44.0001 64.4291 44.0001C72.3056 44.0001 76.2843 48.0636 78.2365 51.4737C79.87 54.3271 80 57.7153 80 61.0032V87" stroke="black" stroke-width="18"/>
<path d="M16 87V63.047C16 58.3651 16.2899 53.4264 19.2736 49.8183C21.7034 46.8801 25.7807 44.0001 32.4291 44.0001C40.3056 44.0001 44.2843 48.0636 46.2365 51.4737C47.87 54.3271 48 57.7153 48 61.0032V87" stroke="white" stroke-width="2"/>
<path d="M48 87V63.047C48 58.3651 48.2899 53.4264 51.2736 49.8183C53.7034 46.8801 57.7807 44.0001 64.4291 44.0001C72.3056 44.0001 76.2843 48.0636 78.2365 51.4737C79.87 54.3271 80 57.7153 80 61.0032V87" stroke="white" stroke-width="2"/>
<path d="M328 10C334.068 10 332.677 24.6827 332.677 24.6827C332.677 24.6827 345.861 19.1542 347.812 24.6827C349.784 30.2678 335.568 33.757 335.568 33.757C335.568 33.757 345.28 45.0834 340.245 48.4397C335.29 51.7425 328 39.3653 328 39.3653C328 39.3653 320.71 51.7425 315.755 48.4397C310.72 45.0834 320.432 33.757 320.432 33.757C320.432 33.757 306.216 30.2678 308.188 24.6827C310.139 19.1542 323.323 24.6827 323.323 24.6827C323.323 24.6827 321.932 10 328 10Z" fill="#E2231A"/>
<path d="M352 87C352 87 352 74.8756 352 64.0467C352 59.3648 352.29 54.4264 355.274 50.8183C357.703 47.8801 361.781 45.0001 368.429 45.0001C376.306 45.0001 380.284 49.0636 382.237 52.4737C383.87 55.3271 384 58.7101 384 61.998C384 68.3803 384 79.5584 384 87" stroke="black" stroke-width="18"/>
<path d="M352 87V64.047C352 59.3651 352.29 54.4264 355.274 50.8183C357.703 47.8801 361.781 45.0001 368.429 45.0001C376.306 45.0001 380.284 49.0636 382.237 52.4737C383.87 55.3271 384 58.7101 384 61.998C384 68.3803 384 79.5584 384 87" stroke="white" stroke-width="2"/>
<path d="M328 53L328 87.186" stroke="black" stroke-width="20"/>
<line x1="328" y1="53" x2="328" y2="88" stroke="white" stroke-width="2"/>
<path d="M136 88C136 88 136 71 136 61.5C136 55.5 130.655 45 119.5 45C108.345 45 102 54 102 61.5C101.999 73 110.275 79 121 79C124 79 120 79 123 79" stroke="black" stroke-width="18"/>
<path d="M136 88C136 88 136 71 136 61.5C136 55.5 130.655 45 119.5 45C108.345 45 102 54 102 61.5C101.999 73 110.275 79 121 79C124 79 120 79 123 79" stroke="white" stroke-width="2"/>
<path d="M179 79.0002C176 79.0002 180 79.0002 177 79.0002C166.275 79.0002 157.999 73.0002 158 61.5002C158 54.0002 164.345 45.0001 175.5 45.0001C186.655 45.0001 192 55.5002 192 61.5002C192 64.8526 192 73.6275 192 83C192 90 192 99 181.5 99C171 99 159 99 158 99" stroke="black" stroke-width="18"/>
<path d="M179 79.0002C176 79.0002 180 79.0002 177 79.0002C166.275 79.0002 157.999 73.0002 158 61.5002C158 54.0002 164.345 45.0001 175.5 45.0001C186.655 45.0001 192 55.5002 192 61.5002C192 64.8526 192 73.6275 192 83C192 90 192 99 181.5 99C171 99 159 99 158 99" stroke="white" stroke-width="2"/>
<path d="M248 88C248 88 248 71 248 61.5C248 55.5 242.655 45 231.5 45C220.345 45 214 54 214 61.5C213.999 73 222.275 79 233 79C236 79 232 79 235 79" stroke="black" stroke-width="18"/>
<path d="M248 88C248 88 248 71 248 61.5C248 55.5 242.655 45 231.5 45C220.345 45 214 54 214 61.5C213.999 73 222.275 79 233 79C236 79 232 79 235 79" stroke="white" stroke-width="2"/>
<path d="M313 46C307.109 46 298.135 46 287.183 46C276.474 46 270.28 54.3962 270.011 61.6098C270.005 61.773 270 65.8381 270 66" stroke="black" stroke-width="18"/>
<path d="M313 46C306.969 46 298.804 46 287.592 46C276.628 46 270.287 54.3962 270.011 61.6098C270.005 61.773 270 65.8381 270 66" stroke="white" stroke-width="2"/>
<path d="M261 80C265.909 80 280.555 80 289.681 80C298.605 80 303.767 71.6038 303.991 64.3902C303.996 64.227 304 60.1619 304 60" stroke="black" stroke-width="18"/>
<path d="M261 80C265.909 80 280.555 80 289.681 80C298.605 80 303.767 71.6038 303.991 64.3902C303.996 64.227 304 60.1619 304 60" stroke="white" stroke-width="2"/>
<rect x="386" y="19" width="49" height="26" rx="13" fill="#1CABE2"/>
<path d="M398.076 31.116H400.356C401.004 31.116 401.468 31.004 401.748 30.78C402.036 30.548 402.18 30.204 402.18 29.748C402.18 29.444 402.132 29.204 402.036 29.028C401.94 28.852 401.808 28.716 401.64 28.62C401.472 28.524 401.276 28.464 401.052 28.44C400.836 28.408 400.604 28.392 400.356 28.392H398.076V31.116ZM396.936 27.432H400.044C400.228 27.432 400.424 27.436 400.632 27.444C400.848 27.444 401.06 27.456 401.268 27.48C401.476 27.496 401.668 27.524 401.844 27.564C402.028 27.604 402.184 27.664 402.312 27.744C402.592 27.912 402.828 28.144 403.02 28.44C403.22 28.736 403.32 29.1 403.32 29.532C403.32 29.988 403.208 30.384 402.984 30.72C402.768 31.048 402.456 31.292 402.048 31.452V31.476C402.576 31.588 402.98 31.828 403.26 32.196C403.54 32.564 403.68 33.012 403.68 33.54C403.68 33.852 403.624 34.156 403.512 34.452C403.4 34.748 403.232 35.012 403.008 35.244C402.792 35.468 402.52 35.652 402.192 35.796C401.872 35.932 401.5 36 401.076 36H396.936V27.432ZM398.076 35.04H400.932C401.436 35.04 401.828 34.904 402.108 34.632C402.396 34.36 402.54 33.984 402.54 33.504C402.54 33.224 402.488 32.992 402.384 32.808C402.28 32.624 402.14 32.48 401.964 32.376C401.796 32.264 401.6 32.188 401.376 32.148C401.152 32.1 400.92 32.076 400.68 32.076H398.076V35.04ZM405.151 27.432H411.067V28.392H406.291V31.116H410.743V32.076H406.291V35.04H411.103V36H405.151V27.432ZM414.431 28.392H411.575V27.432H418.427V28.392H415.571V36H414.431V28.392ZM419.752 32.46H422.656L421.228 28.464H421.204L419.752 32.46ZM420.604 27.432H421.864L425.212 36H423.952L423.016 33.42H419.392L418.432 36H417.268L420.604 27.432Z" fill="white"/>
</svg>
