<svg width="488" height="116" viewBox="0 0 488 116" fill="none" xmlns="http://www.w3.org/2000/svg">
<path d="M16 87V63.047C16 58.3651 16.2899 53.4264 19.2736 49.8183C21.7034 46.8801 25.7807 44.0001 32.4291 44.0001C40.3056 44.0001 44.2843 48.0636 46.2365 51.4737C47.87 54.3271 48 57.7153 48 61.0032V87" stroke="black" stroke-width="18"/>
<path d="M48 87V63.047C48 58.3651 48.2899 53.4264 51.2736 49.8183C53.7034 46.8801 57.7807 44.0001 64.4291 44.0001C72.3056 44.0001 76.2843 48.0636 78.2365 51.4737C79.87 54.3271 80 57.7153 80 61.0032V87" stroke="black" stroke-width="18"/>
<path d="M16 87V63.047C16 58.3651 16.2899 53.4264 19.2736 49.8183C21.7034 46.8801 25.7807 44.0001 32.4291 44.0001C40.3056 44.0001 44.2843 48.0636 46.2365 51.4737C47.87 54.3271 48 57.7153 48 61.0032V87" stroke="white" stroke-width="2"/>
<path d="M48 87V63.047C48 58.3651 48.2899 53.4264 51.2736 49.8183C53.7034 46.8801 57.7807 44.0001 64.4291 44.0001C72.3056 44.0001 76.2843 48.0636 78.2365 51.4737C79.87 54.3271 80 57.7153 80 61.0032V87" stroke="white" stroke-width="2"/>
<path d="M328 10C334.068 10 332.677 24.6827 332.677 24.6827C332.677 24.6827 345.861 19.1542 347.812 24.6827C349.784 30.2678 335.568 33.757 335.568 33.757C335.568 33.757 345.28 45.0834 340.245 48.4397C335.29 51.7425 328 39.3653 328 39.3653C328 39.3653 320.71 51.7425 315.755 48.4397C310.72 45.0834 320.432 33.757 320.432 33.757C320.432 33.757 306.216 30.2678 308.188 24.6827C310.139 19.1542 323.323 24.6827 323.323 24.6827C323.323 24.6827 321.932 10 328 10Z" fill="#E2231A"/>
<path d="M352 87C352 87 352 74.8756 352 64.0467C352 59.3648 352.29 54.4264 355.274 50.8183C357.703 47.8801 361.781 45.0001 368.429 45.0001C376.306 45.0001 380.284 49.0636 382.237 52.4737C383.87 55.3271 384 58.7101 384 61.998C384 68.3803 384 79.5584 384 87" stroke="black" stroke-width="18"/>
<path d="M352 87V64.047C352 59.3651 352.29 54.4264 355.274 50.8183C357.703 47.8801 361.781 45.0001 368.429 45.0001C376.306 45.0001 380.284 49.0636 382.237 52.4737C383.87 55.3271 384 58.7101 384 61.998C384 68.3803 384 79.5584 384 87" stroke="white" stroke-width="2"/>
<path d="M328 53L328 87.186" stroke="black" stroke-width="20"/>
<line x1="328" y1="53" x2="328" y2="88" stroke="white" stroke-width="2"/>
<path d="M136 88C136 88 136 71 136 61.5C136 55.5 130.655 45 119.5 45C108.345 45 102 54 102 61.5C101.999 73 110.275 79 121 79C124 79 120 79 123 79" stroke="black" stroke-width="18"/>
<path d="M136 88C136 88 136 71 136 61.5C136 55.5 130.655 45 119.5 45C108.345 45 102 54 102 61.5C101.999 73 110.275 79 121 79C124 79 120 79 123 79" stroke="white" stroke-width="2"/>
<path d="M179 79.0002C176 79.0002 180 79.0002 177 79.0002C166.275 79.0002 157.999 73.0002 158 61.5002C158 54.0002 164.345 45.0001 175.5 45.0001C186.655 45.0001 192 55.5002 192 61.5002C192 64.8526 192 73.6275 192 83C192 90 192 99 181.5 99C171 99 159 99 158 99" stroke="black" stroke-width="18"/>
<path d="M179 79.0002C176 79.0002 180 79.0002 177 79.0002C166.275 79.0002 157.999 73.0002 158 61.5002C158 54.0002 164.345 45.0001 175.5 45.0001C186.655 45.0001 192 55.5002 192 61.5002C192 64.8526 192 73.6275 192 83C192 90 192 99 181.5 99C171 99 159 99 158 99" stroke="white" stroke-width="2"/>
<path d="M248 88C248 88 248 71 248 61.5C248 55.5 242.655 45 231.5 45C220.345 45 214 54 214 61.5C213.999 73 222.275 79 233 79C236 79 232 79 235 79" stroke="black" stroke-width="18"/>
<path d="M248 88C248 88 248 71 248 61.5C248 55.5 242.655 45 231.5 45C220.345 45 214 54 214 61.5C213.999 73 222.275 79 233 79C236 79 232 79 235 79" stroke="white" stroke-width="2"/>
<path d="M313 46C307.109 46 298.135 46 287.183 46C276.474 46 270.28 54.3962 270.011 61.6098C270.005 61.773 270 65.8381 270 66" stroke="black" stroke-width="18"/>
<path d="M313 46C306.969 46 298.804 46 287.592 46C276.628 46 270.287 54.3962 270.011 61.6098C270.005 61.773 270 65.8381 270 66" stroke="white" stroke-width="2"/>
<path d="M261 80C265.909 80 280.555 80 289.681 80C298.605 80 303.767 71.6038 303.991 64.3902C303.996 64.227 304 60.1619 304 60" stroke="black" stroke-width="18"/>
<path d="M261 80C265.909 80 280.555 80 289.681 80C298.605 80 303.767 71.6038 303.991 64.3902C303.996 64.227 304 60.1619 304 60" stroke="white" stroke-width="2"/>
<path d="M468.56 56.0477H400.863L393.293 41.5558L393.46 41.2046L407.32 11.9521H474.954L482.504 26.4854L468.56 56.0477ZM401.811 54.4983H467.56L480.764 26.5267L474.006 13.5119H408.319L395.032 41.5248L401.811 54.4983Z" fill="#2C269A"/>
<path d="M468.56 56.0477H400.863L393.293 41.5558L393.46 41.2046L407.32 11.9521H474.954L482.504 26.4854L468.56 56.0477ZM401.811 54.4983H467.56L480.764 26.5267L474.006 13.5119H408.319L395.032 41.5248L401.811 54.4983Z" fill="#82DBE1"/>
<path d="M407.319 11.9521H474.006L480.764 26.5164L467.56 54.4983H401.81L395.031 41.5248L407.319 11.9521Z" fill="#82DBE1"/>
<path d="M410.797 25.907H415.077C419.388 25.907 422.908 29.3776 422.908 33.6746C422.908 37.9715 419.388 41.4422 415.077 41.4422H410.797V25.907ZM415.056 39.7895C418.534 39.7895 421.241 37.1762 421.241 33.6746C421.241 30.173 418.534 27.5597 415.056 27.5597H412.442V39.7792H415.056V39.7895Z" fill="#2C269A"/>
<path d="M436.081 30.2246C436.081 32.6313 434.145 34.5216 431.718 34.5216H427.772V41.4422H426.105V25.907H431.718C434.145 25.907 436.081 27.8489 436.081 30.2246ZM434.415 30.2556C434.415 28.6029 433.134 27.508 431.572 27.508H427.782V32.9515H431.572C433.134 32.9515 434.415 31.9599 434.415 30.2556Z" fill="#2C269A"/>
<path d="M453.969 33.2098V33.6746C453.969 38.0749 450.366 41.6488 445.93 41.6488C441.462 41.6488 437.891 38.0749 437.891 33.6746C437.891 29.2744 441.473 25.7004 445.93 25.7004C448.929 25.7004 451.542 27.3325 452.896 29.7392L451.459 30.5449C450.387 28.6236 448.304 27.3634 445.93 27.3634C442.4 27.3634 439.557 30.1627 439.557 33.6849C439.557 37.2072 442.4 40.0064 445.93 40.0064C449.085 40.0064 451.699 37.7753 452.198 34.7695H445.909V33.2201H453.969V33.2098Z" fill="#2C269A"/>
<path d="M482.95 21.4033H462.207V41.9792H482.95V21.4033Z" fill="#2C269A"/>
<path d="M486.702 27.8436L468.738 17.5557L458.367 35.3744L476.33 45.6623L486.702 27.8436Z" fill="#2C269A"/>
<path d="M476.335 17.5534L458.371 27.8413L468.743 45.66L486.706 35.3721L476.335 17.5534Z" fill="#2C269A"/>
<path d="M467.332 31.8463L471.268 35.7508L478.932 28.1484" stroke="white" stroke-miterlimit="10"/>
</svg>
