<svg width="451" height="116" viewBox="0 0 451 116" fill="none" xmlns="http://www.w3.org/2000/svg">
<path d="M16 87V63.047C16 58.3651 16.2899 53.4264 19.2736 49.8183C21.7034 46.8801 25.7807 44.0001 32.4291 44.0001C40.3056 44.0001 44.2843 48.0636 46.2365 51.4737C47.87 54.3271 48 57.7153 48 61.0032V87" stroke="black" stroke-width="18"/>
<path d="M48 87V63.047C48 58.3651 48.2899 53.4264 51.2736 49.8183C53.7034 46.8801 57.7807 44.0001 64.4291 44.0001C72.3056 44.0001 76.2843 48.0636 78.2365 51.4737C79.87 54.3271 80 57.7153 80 61.0032V87" stroke="black" stroke-width="18"/>
<path d="M16 87V63.047C16 58.3651 16.2899 53.4264 19.2736 49.8183C21.7034 46.8801 25.7807 44.0001 32.4291 44.0001C40.3056 44.0001 44.2843 48.0636 46.2365 51.4737C47.87 54.3271 48 57.7153 48 61.0032V87" stroke="white" stroke-width="2"/>
<path d="M48 87V63.047C48 58.3651 48.2899 53.4264 51.2736 49.8183C53.7034 46.8801 57.7807 44.0001 64.4291 44.0001C72.3056 44.0001 76.2843 48.0636 78.2365 51.4737C79.87 54.3271 80 57.7153 80 61.0032V87" stroke="white" stroke-width="2"/>
<path d="M328 10C334.068 10 332.677 24.6827 332.677 24.6827C332.677 24.6827 345.861 19.1542 347.812 24.6827C349.784 30.2678 335.568 33.757 335.568 33.757C335.568 33.757 345.28 45.0834 340.245 48.4397C335.29 51.7425 328 39.3653 328 39.3653C328 39.3653 320.71 51.7425 315.755 48.4397C310.72 45.0834 320.432 33.757 320.432 33.757C320.432 33.757 306.216 30.2678 308.188 24.6827C310.139 19.1542 323.323 24.6827 323.323 24.6827C323.323 24.6827 321.932 10 328 10Z" fill="#E2231A"/>
<path d="M352 87C352 87 352 74.8756 352 64.0467C352 59.3648 352.29 54.4264 355.274 50.8183C357.703 47.8801 361.781 45.0001 368.429 45.0001C376.306 45.0001 380.284 49.0636 382.237 52.4737C383.87 55.3271 384 58.7101 384 61.998C384 68.3803 384 79.5584 384 87" stroke="black" stroke-width="18"/>
<path d="M352 87V64.047C352 59.3651 352.29 54.4264 355.274 50.8183C357.703 47.8801 361.781 45.0001 368.429 45.0001C376.306 45.0001 380.284 49.0636 382.237 52.4737C383.87 55.3271 384 58.7101 384 61.998C384 68.3803 384 79.5584 384 87" stroke="white" stroke-width="2"/>
<path d="M328 53L328 87.186" stroke="black" stroke-width="20"/>
<line x1="328" y1="53" x2="328" y2="88" stroke="white" stroke-width="2"/>
<path d="M136 88C136 88 136 71 136 61.5C136 55.5 130.655 45 119.5 45C108.345 45 102 54 102 61.5C101.999 73 110.275 79 121 79C124 79 120 79 123 79" stroke="black" stroke-width="18"/>
<path d="M136 88C136 88 136 71 136 61.5C136 55.5 130.655 45 119.5 45C108.345 45 102 54 102 61.5C101.999 73 110.275 79 121 79C124 79 120 79 123 79" stroke="white" stroke-width="2"/>
<path d="M179 79.0002C176 79.0002 180 79.0002 177 79.0002C166.275 79.0002 157.999 73.0002 158 61.5002C158 54.0002 164.345 45.0001 175.5 45.0001C186.655 45.0001 192 55.5002 192 61.5002C192 64.8526 192 73.6275 192 83C192 90 192 99 181.5 99C171 99 159 99 158 99" stroke="black" stroke-width="18"/>
<path d="M179 79.0002C176 79.0002 180 79.0002 177 79.0002C166.275 79.0002 157.999 73.0002 158 61.5002C158 54.0002 164.345 45.0001 175.5 45.0001C186.655 45.0001 192 55.5002 192 61.5002C192 64.8526 192 73.6275 192 83C192 90 192 99 181.5 99C171 99 159 99 158 99" stroke="white" stroke-width="2"/>
<path d="M248 88C248 88 248 71 248 61.5C248 55.5 242.655 45 231.5 45C220.345 45 214 54 214 61.5C213.999 73 222.275 79 233 79C236 79 232 79 235 79" stroke="black" stroke-width="18"/>
<path d="M248 88C248 88 248 71 248 61.5C248 55.5 242.655 45 231.5 45C220.345 45 214 54 214 61.5C213.999 73 222.275 79 233 79C236 79 232 79 235 79" stroke="white" stroke-width="2"/>
<path d="M313 46C307.109 46 298.135 46 287.183 46C276.474 46 270.28 54.3962 270.011 61.6098C270.005 61.773 270 65.8381 270 66" stroke="black" stroke-width="18"/>
<path d="M313 46C306.969 46 298.804 46 287.592 46C276.628 46 270.287 54.3962 270.011 61.6098C270.005 61.773 270 65.8381 270 66" stroke="white" stroke-width="2"/>
<path d="M261 80C265.909 80 280.555 80 289.681 80C298.605 80 303.767 71.6038 303.991 64.3902C303.996 64.227 304 60.1619 304 60" stroke="black" stroke-width="18"/>
<path d="M261 80C265.909 80 280.555 80 289.681 80C298.605 80 303.767 71.6038 303.991 64.3902C303.996 64.227 304 60.1619 304 60" stroke="white" stroke-width="2"/>
<path d="M436.66 47.8613H397.17L392.754 39.4077L392.851 39.2028L400.936 22.1389H440.389L444.793 30.6166L436.66 47.8613ZM397.723 46.9575H436.077L443.779 30.6407L439.837 23.0488H401.519L393.768 39.3896L397.723 46.9575Z" fill="#2C269A"/>
<path d="M436.66 47.8613H397.17L392.754 39.4077L392.851 39.2028L400.936 22.1389H440.389L444.793 30.6166L436.66 47.8613ZM397.723 46.9575H436.077L443.779 30.6407L439.837 23.0488H401.519L393.768 39.3896L397.723 46.9575Z" fill="#82DBE1"/>
<path d="M400.937 22.1389H439.838L443.78 30.6347L436.078 46.9575H397.724L393.77 39.3896L400.937 22.1389Z" fill="#82DBE1"/>
<path d="M402.965 30.2793H405.461C407.976 30.2793 410.029 32.3038 410.029 34.8104C410.029 37.317 407.976 39.3415 405.461 39.3415H402.965V30.2793ZM405.449 38.3774C407.478 38.3774 409.057 36.853 409.057 34.8104C409.057 32.7678 407.478 31.2434 405.449 31.2434H403.925V38.3714H405.449V38.3774Z" fill="#2C269A"/>
<path d="M417.714 32.7979C417.714 34.2018 416.584 35.3045 415.169 35.3045H412.866V39.3415H411.895V30.2793H415.169C416.584 30.2793 417.714 31.4121 417.714 32.7979ZM416.742 32.816C416.742 31.8519 415.995 31.2132 415.084 31.2132H412.873V34.3886H415.084C415.995 34.3886 416.742 33.8102 416.742 32.816Z" fill="#2C269A"/>
<path d="M428.148 34.5392V34.8103C428.148 37.3771 426.047 39.4619 423.459 39.4619C420.853 39.4619 418.77 37.3771 418.77 34.8103C418.77 32.2435 420.859 30.1587 423.459 30.1587C425.208 30.1587 426.733 31.1107 427.523 32.5146L426.684 32.9846C426.059 31.8639 424.844 31.1288 423.459 31.1288C421.4 31.1288 419.741 32.7617 419.741 34.8163C419.741 36.871 421.4 38.5039 423.459 38.5039C425.3 38.5039 426.824 37.2024 427.116 35.449H423.447V34.5452H428.148V34.5392Z" fill="#2C269A"/>
<path d="M445.057 27.6521H432.957V39.6547H445.057V27.6521Z" fill="#2C269A"/>
<path d="M447.244 31.4088L436.766 25.4075L430.716 35.8017L441.194 41.803L447.244 31.4088Z" fill="#2C269A"/>
<path d="M441.194 25.4062L430.715 31.4075L436.765 41.8017L447.244 35.8004L441.194 25.4062Z" fill="#2C269A"/>
<path d="M435.945 33.7438L438.241 36.0214L442.712 31.5867" stroke="white" stroke-miterlimit="10"/>
</svg>
